<?xml version="1.0" encoding="UTF-8" standalone="no"?>
<!-- Created with Inkscape (http://www.inkscape.org/) -->

<svg
   xmlns:dc="http://purl.org/dc/elements/1.1/"
   xmlns:cc="http://creativecommons.org/ns#"
   xmlns:rdf="http://www.w3.org/1999/02/22-rdf-syntax-ns#"
   xmlns:svg="http://www.w3.org/2000/svg"
   xmlns="http://www.w3.org/2000/svg"
   xmlns:sodipodi="http://sodipodi.sourceforge.net/DTD/sodipodi-0.dtd"
   xmlns:inkscape="http://www.inkscape.org/namespaces/inkscape"
   id="svg3039"
   version="1.1"
   inkscape:version="0.48.3.1 r9886"
   width="600"
   height="1000"
   sodipodi:docname="arrows_light.svg">
  <metadata
     id="metadata3045">
    <rdf:RDF>
      <cc:Work
         rdf:about="">
        <dc:format>image/svg+xml</dc:format>
        <dc:type
           rdf:resource="http://purl.org/dc/dcmitype/StillImage" />
        <dc:title></dc:title>
      </cc:Work>
    </rdf:RDF>
  </metadata>
  <defs
     id="defs3043" />
  <sodipodi:namedview
     pagecolor="#ffffff"
     bordercolor="#666666"
     borderopacity="1"
     objecttolerance="10"
     gridtolerance="10"
     guidetolerance="10"
     inkscape:pageopacity="0"
     inkscape:pageshadow="2"
     inkscape:window-width="1316"
     inkscape:window-height="744"
     id="namedview3041"
     showgrid="false"
     showguides="true"
     inkscape:guide-bbox="true"
     inkscape:zoom="1.688571"
     inkscape:cx="235.19977"
     inkscape:cy="586.50913"
     inkscape:window-x="50"
     inkscape:window-y="24"
     inkscape:window-maximized="1"
     inkscape:current-layer="svg3039" />
  <path
     style="fill:#3da4f4;fill-opacity:1"
     d="m 333.35289,462.34586 39.35037,-20.73866 -19.94874,-0.27022 -19.94875,-0.27023 -0.64708,-11.22977 c -0.3559,-6.17638 -0.64913,-14.18127 -0.65163,-17.78865 -0.003,-3.80545 -0.5293,-7.16386 -1.25455,-8 -1.05217,-1.21305 -6.65022,-1.39564 -35.37173,-1.15373 l -34.12173,0.28741 -2.19735,17.21259 c -1.20855,9.46693 -2.60662,18.2251 -3.10683,19.4626 -0.89887,2.22375 -1.13372,2.25 -20.13092,2.25 -11.00966,0 -18.81558,0.37298 -18.27144,0.87305 2.12913,1.95666 73.77745,40.12609 75.30151,40.11561 0.90667,-0.006 19.35616,-9.34374 40.99887,-20.75 z"
     id="path3868"
     inkscape:connector-curvature="0"
     inkscape:export-filename="/home/rho/walid/bottom_arrow_d.png"
     inkscape:export-xdpi="90"
     inkscape:export-ydpi="90" />
  <path
     style="fill:#3da4f4;fill-opacity:1"
     d="m 95.22789,399.53224 c 0.53364,-0.6875 1.98215,-3.09229 3.2189,-5.34398 l 2.24863,-4.09398 21.06478,-0.65602 c 11.58563,-0.36081 34.47776,-0.65602 50.8714,-0.65602 l 29.80662,0 2.47285,-8.25 c 1.36007,-4.5375 2.61203,-9.1174 2.78214,-10.17755 0.30226,-1.88369 -0.76576,-1.92151 -46.9407,-1.6622 -25.9875,0.14595 -47.25,-0.0171 -47.25,-0.36228 0,-0.34521 0.90915,-2.40972 2.02032,-4.58781 1.79975,-3.5278 1.84039,-3.96016 0.37219,-3.96016 -2.30467,0 -95.66126,18.93542 -96.24765,19.52181 -0.26301,0.263 -0.27041,0.68598 -0.0164,0.93994 0.49344,0.49349 72.58394,20.53825 73.86527,20.53825 0.41876,0 1.198,-0.5625 1.73165,-1.25 z"
     id="path3866"
     inkscape:connector-curvature="0"
     inkscape:export-xdpi="90"
     inkscape:export-ydpi="90"
     inkscape:export-filename="/home/rho/walid/left_arrow_d.png" />
  <path
     style="fill:#3da4f4;fill-opacity:1"
     d="m 537.30369,386.18892 c 19.8,-5.64079 37.2906,-10.57829 38.868,-10.97221 1.5774,-0.39393 2.69561,-0.88862 2.48492,-1.09931 -0.42407,-0.42407 -96.90537,-18.51959 -98.74234,-18.51959 -0.71553,0 -0.36021,1.55052 0.93886,4.09691 1.14954,2.25329 1.79657,4.39079 1.43784,4.75 -0.35873,0.3592 -21.99013,0.80026 -48.06976,0.98014 -32.21851,0.22222 -47.41752,0.66335 -47.41752,1.37622 0,0.57704 0.9442,5.07092 2.09822,9.98641 l 2.09821,8.93725 51.42781,-0.20411 c 28.2853,-0.11225 51.58697,-0.0283 51.78149,0.18654 0.19452,0.21485 1.54038,2.75314 2.99082,5.64064 1.45043,2.8875 2.96706,5.21559 3.3703,5.17354 0.40323,-0.0421 16.93315,-4.69165 36.73315,-10.33243 z"
     id="path3864"
     inkscape:connector-curvature="0"
     inkscape:export-filename="/home/rho/walid/right_arrow_d.png"
     inkscape:export-xdpi="90"
     inkscape:export-ydpi="90" />
  <path
     style="fill:#3da4f4;fill-opacity:1"
     d="m 326.3345,352.68427 c 0.58883,-0.89019 0.48864,-4.50672 -0.51969,-18.75985 l -0.37043,-5.23602 14.32024,0.16342 14.32023,0.16343 -27.7467,-10.07127 -27.74671,-10.07125 -28.19573,8.64024 c -15.50765,4.75214 -28.40748,8.83933 -28.66629,9.08265 -0.2588,0.24333 5.95765,0.64057 13.81433,0.88275 l 14.28489,0.44034 -0.67189,2.89289 c -0.36955,1.59109 -1.10647,6.97093 -1.63761,11.95522 l -0.96572,9.06233 29.57041,0.91153 c 18.37979,0.56657 29.81272,0.54522 30.21067,-0.0564 z"
     id="path3055"
     inkscape:connector-curvature="0"
     inkscape:export-filename="/home/rho/walid/into_arrow_d.png"
     inkscape:export-xdpi="90"
     inkscape:export-ydpi="90" />
  <g
     inkscape:groupmode="layer"
     id="layer1"
     inkscape:label="HIDDEN"
     style="display:none">
    <path
       style="fill:#cecfd2"
       d="m 273.92852,368.05565 c -5.7673,2.58427 -12.53618,12.35359 -12.54901,14.21215 6.50536,1.79132 23.70919,2.75584 40.66781,2.86449 16.52469,0.10608 32.81657,-0.60087 38.75071,-2.14709 0.0129,-1.86583 -6.00547,-11.92946 -11.60964,-14.65675 -16.56299,-8.06043 -38.45012,-7.80508 -55.25987,-0.2728 z"
       id="path3862"
       inkscape:connector-curvature="0"
       sodipodi:nodetypes="acscaa" />
  </g>
  <path
     sodipodi:type="arc"
     style="fill:#3da4f4;fill-opacity:1;stroke:none"
     id="path3899"
     sodipodi:cx="269.45862"
     sodipodi:cy="389.42456"
     sodipodi:rx="42.343498"
     sodipodi:ry="16.582069"
     d="m 311.80212,389.42456 a 42.343498,16.582069 0 1 1 -84.687,0 42.343498,16.582069 0 1 1 84.687,0 z"
     transform="matrix(-1,0,0,1,564.92107,-10.95601)"
     inkscape:export-filename="/home/rho/walid/mid_area_d.png"
     inkscape:export-xdpi="90"
     inkscape:export-ydpi="90" />
</svg>
